{
  "format": "pattern-midi.v1",
  "global": {
    "ticks_per_quarter": 480,
    "time_signature": [
      4,
      4
    ],
    "tempo_bpm": 108,
    "bars": 16,
    "loop": true
  },
  "instruments": {
    "drums": {
      "channel": 10,
      "program": null
    },
    "bass": {
      "channel": 2,
      "program": 32
    },
    "ep": {
      "channel": 1,
      "program": 4
    },
    "pad": {
      "channel": 3,
      "program": 71
    },
    "brass": {
      "channel": 4,
      "program": 59
    }
  },
  "patterns": {
    "dr_brush_A": {
      "length_beats": 4,
      "drum_grid": {
        "resolution": 16,
        "swing": 0,
        "lanes": {
          "kick": {
            "pitch": 36,
            "vel": 62,
            "steps": [
              1,
              0,
              0,
              0,
              0,
              0,
              0,
              0,
              1,
              0,
              0,
              0,
              0,
              0,
              0,
              0
            ]
          },
          "rim": {
            "pitch": 37,
            "vel": 46,
            "steps": [
              0,
              0,
              0,
              0,
              1,
              0,
              0,
              0,
              0,
              0,
              0,
              0,
              0,
              0,
              0,
              0
            ]
          },
          "snare_brush": {
            "pitch": 38,
            "vel": 52,
            "steps": [
              0,
              0,
              0,
              0,
              0,
              0,
              0,
              0,
              0,
              0,
              0,
              0,
              0,
              1,
              0,
              0
            ]
          },
          "hat": {
            "pitch": 42,
            "vel": 40,
            "steps": [
              0,
              0,
              1,
              0,
              0,
              0,
              1,
              0,
              0,
              0,
              1,
              0,
              0,
              0,
              1,
              0
            ]
          }
        }
      }
    },
    "dr_brush_B": {
      "length_beats": 4,
      "drum_grid": {
        "resolution": 16,
        "swing": 0,
        "lanes": {
          "kick": {
            "pitch": 36,
            "vel": 62,
            "steps": [
              1,
              0,
              0,
              0,
              0,
              0,
              0,
              0,
              1,
              0,
              1,
              0,
              0,
              0,
              0,
              0
            ]
          },
          "rim": {
            "pitch": 37,
            "vel": 46,
            "steps": [
              0,
              0,
              0,
              0,
              0,
              1,
              0,
              0,
              0,
              0,
              0,
              0,
              0,
              0,
              0,
              0
            ]
          },
          "snare_brush": {
            "pitch": 38,
            "vel": 52,
            "steps": [
              0,
              0,
              0,
              0,
              0,
              0,
              0,
              0,
              0,
              0,
              0,
              0,
              0,
              1,
              0,
              0
            ]
          },
          "hat": {
            "pitch": 42,
            "vel": 40,
            "steps": [
              0,
              0,
              1,
              0,
              0,
              0,
              1,
              0,
              0,
              0,
              0,
              0,
              0,
              0,
              1,
              0
            ]
          }
        }
      }
    },
    "bass_ped_C_A": {
      "length_beats": 4,
      "notes": [
        {
          "instrument": "bass",
          "beat": 0,
          "dur": 4,
          "pitch": 36,
          "vel": 42
        }
      ]
    },
    "bass_ped_C_B": {
      "length_beats": 4,
      "notes": [
        {
          "instrument": "bass",
          "beat": 0,
          "dur": 4,
          "pitch": 36,
          "vel": 40
        },
        {
          "instrument": "bass",
          "beat": 0,
          "dur": 4,
          "pitch": 43,
          "vel": 24
        }
      ]
    },
    "bass_ped_F_A": {
      "length_beats": 4,
      "notes": [
        {
          "instrument": "bass",
          "beat": 0,
          "dur": 4,
          "pitch": 29,
          "vel": 40
        }
      ]
    },
    "bass_ped_F_B": {
      "length_beats": 4,
      "notes": [
        {
          "instrument": "bass",
          "beat": 0,
          "dur": 4,
          "pitch": 29,
          "vel": 38
        }
      ]
    },
    "bass_ped_Ab_A": {
      "length_beats": 4,
      "notes": [
        {
          "instrument": "bass",
          "beat": 0,
          "dur": 4,
          "pitch": 32,
          "vel": 40
        }
      ]
    },
    "bass_ped_Ab_B": {
      "length_beats": 4,
      "notes": [
        {
          "instrument": "bass",
          "beat": 0,
          "dur": 4,
          "pitch": 32,
          "vel": 40
        },
        {
          "instrument": "bass",
          "beat": 0,
          "dur": 4,
          "pitch": 39,
          "vel": 24
        }
      ]
    },
    "bass_ped_D_A": {
      "length_beats": 4,
      "notes": [
        {
          "instrument": "bass",
          "beat": 0,
          "dur": 4,
          "pitch": 38,
          "vel": 40
        }
      ]
    },
    "ep_C_A": {
      "length_beats": 4,
      "notes": [
        {
          "instrument": "ep",
          "beat": 0.5,
          "dur": 0.4,
          "pitch": 60,
          "vel": 50
        },
        {
          "instrument": "ep",
          "beat": 0.5,
          "dur": 0.4,
          "pitch": 64,
          "vel": 50
        },
        {
          "instrument": "ep",
          "beat": 0.5,
          "dur": 0.4,
          "pitch": 69,
          "vel": 50
        },
        {
          "instrument": "ep",
          "beat": 2.5,
          "dur": 0.4,
          "pitch": 60,
          "vel": 50
        },
        {
          "instrument": "ep",
          "beat": 2.5,
          "dur": 0.4,
          "pitch": 64,
          "vel": 50
        },
        {
          "instrument": "ep",
          "beat": 2.5,
          "dur": 0.4,
          "pitch": 69,
          "vel": 50
        }
      ]
    },
    "ep_C_B": {
      "length_beats": 4,
      "notes": [
        {
          "instrument": "ep",
          "beat": 0.5,
          "dur": 0.4,
          "pitch": 64,
          "vel": 46
        },
        {
          "instrument": "ep",
          "beat": 0.5,
          "dur": 0.4,
          "pitch": 69,
          "vel": 46
        },
        {
          "instrument": "ep",
          "beat": 2.5,
          "dur": 0.4,
          "pitch": 64,
          "vel": 46
        },
        {
          "instrument": "ep",
          "beat": 2.5,
          "dur": 0.4,
          "pitch": 69,
          "vel": 46
        }
      ]
    },
    "ep_Fm_A": {
      "length_beats": 4,
      "notes": [
        {
          "instrument": "ep",
          "beat": 0.5,
          "dur": 0.4,
          "pitch": 65,
          "vel": 50
        },
        {
          "instrument": "ep",
          "beat": 0.5,
          "dur": 0.4,
          "pitch": 68,
          "vel": 50
        },
        {
          "instrument": "ep",
          "beat": 0.5,
          "dur": 0.4,
          "pitch": 72,
          "vel": 50
        },
        {
          "instrument": "ep",
          "beat": 2.5,
          "dur": 0.4,
          "pitch": 65,
          "vel": 50
        },
        {
          "instrument": "ep",
          "beat": 2.5,
          "dur": 0.4,
          "pitch": 68,
          "vel": 50
        },
        {
          "instrument": "ep",
          "beat": 2.5,
          "dur": 0.4,
          "pitch": 72,
          "vel": 50
        }
      ]
    },
    "ep_Fm_B": {
      "length_beats": 4,
      "notes": [
        {
          "instrument": "ep",
          "beat": 0.5,
          "dur": 0.4,
          "pitch": 68,
          "vel": 46
        },
        {
          "instrument": "ep",
          "beat": 0.5,
          "dur": 0.4,
          "pitch": 72,
          "vel": 46
        },
        {
          "instrument": "ep",
          "beat": 2.5,
          "dur": 0.4,
          "pitch": 68,
          "vel": 46
        },
        {
          "instrument": "ep",
          "beat": 2.5,
          "dur": 0.4,
          "pitch": 72,
          "vel": 46
        }
      ]
    },
    "ep_Ab_A": {
      "length_beats": 4,
      "notes": [
        {
          "instrument": "ep",
          "beat": 0.5,
          "dur": 0.4,
          "pitch": 68,
          "vel": 50
        },
        {
          "instrument": "ep",
          "beat": 0.5,
          "dur": 0.4,
          "pitch": 72,
          "vel": 50
        },
        {
          "instrument": "ep",
          "beat": 0.5,
          "dur": 0.4,
          "pitch": 75,
          "vel": 50
        },
        {
          "instrument": "ep",
          "beat": 2.5,
          "dur": 0.4,
          "pitch": 68,
          "vel": 50
        },
        {
          "instrument": "ep",
          "beat": 2.5,
          "dur": 0.4,
          "pitch": 72,
          "vel": 50
        },
        {
          "instrument": "ep",
          "beat": 2.5,
          "dur": 0.4,
          "pitch": 75,
          "vel": 50
        }
      ]
    },
    "ep_Ab_B": {
      "length_beats": 4,
      "notes": [
        {
          "instrument": "ep",
          "beat": 0.5,
          "dur": 0.4,
          "pitch": 72,
          "vel": 46
        },
        {
          "instrument": "ep",
          "beat": 0.5,
          "dur": 0.4,
          "pitch": 75,
          "vel": 46
        },
        {
          "instrument": "ep",
          "beat": 2.5,
          "dur": 0.4,
          "pitch": 72,
          "vel": 46
        },
        {
          "instrument": "ep",
          "beat": 2.5,
          "dur": 0.4,
          "pitch": 75,
          "vel": 46
        }
      ]
    },
    "ep_Ddim_A": {
      "length_beats": 4,
      "notes": [
        {
          "instrument": "ep",
          "beat": 0.5,
          "dur": 0.4,
          "pitch": 62,
          "vel": 48
        },
        {
          "instrument": "ep",
          "beat": 0.5,
          "dur": 0.4,
          "pitch": 65,
          "vel": 48
        },
        {
          "instrument": "ep",
          "beat": 0.5,
          "dur": 0.4,
          "pitch": 68,
          "vel": 48
        },
        {
          "instrument": "ep",
          "beat": 2.5,
          "dur": 0.4,
          "pitch": 62,
          "vel": 48
        },
        {
          "instrument": "ep",
          "beat": 2.5,
          "dur": 0.4,
          "pitch": 65,
          "vel": 48
        },
        {
          "instrument": "ep",
          "beat": 2.5,
          "dur": 0.4,
          "pitch": 68,
          "vel": 48
        }
      ]
    },
    "ep_rest": {
      "length_beats": 4,
      "notes": []
    },
    "pad_frag_MA": {
      "length_beats": 4,
      "notes": [
        {
          "instrument": "pad",
          "beat": 0.5,
          "dur": 0.25,
          "pitch": 64,
          "vel": 22
        },
        {
          "instrument": "pad",
          "beat": 1,
          "dur": 0.25,
          "pitch": 65,
          "vel": 22
        },
        {
          "instrument": "pad",
          "beat": 1.5,
          "dur": 0.25,
          "pitch": 67,
          "vel": 22
        },
        {
          "instrument": "pad",
          "beat": 2,
          "dur": 0.25,
          "pitch": 65,
          "vel": 22
        },
        {
          "instrument": "pad",
          "beat": 2.5,
          "dur": 0.25,
          "pitch": 64,
          "vel": 22
        }
      ]
    },
    "pad_borrow_H": {
      "length_beats": 4,
      "notes": [
        {
          "instrument": "pad",
          "beat": 0,
          "dur": 4,
          "pitch": 53,
          "vel": 28
        },
        {
          "instrument": "pad",
          "beat": 0,
          "dur": 4,
          "pitch": 56,
          "vel": 28
        }
      ]
    },
    "pad_shadow_MA": {
      "length_beats": 4,
      "notes": [
        {
          "instrument": "bass",
          "beat": 0,
          "dur": 4,
          "pitch": 74,
          "vel": 28
        },
        {
          "instrument": "bass",
          "beat": 1,
          "dur": 0.25,
          "pitch": 75,
          "vel": 28
        }
      ]
    },
    "brass_hit": {
      "length_beats": 4,
      "notes": [
        {
          "instrument": "brass",
          "beat": 1,
          "dur": 0.5,
          "pitch": 67,
          "vel": 62
        }
      ]
    }
  },
  "arrangement": [
    {
      "pattern": "dr_brush_A",
      "start_bar": 0,
      "repeat": 2
    },
    {
      "pattern": "dr_brush_B",
      "start_bar": 2,
      "repeat": 2
    },
    {
      "pattern": "dr_brush_A",
      "start_bar": 4,
      "repeat": 2
    },
    {
      "pattern": "dr_brush_B",
      "start_bar": 6,
      "repeat": 2
    },
    {
      "pattern": "dr_brush_A",
      "start_bar": 8,
      "repeat": 2
    },
    {
      "pattern": "dr_brush_B",
      "start_bar": 10,
      "repeat": 2
    },
    {
      "pattern": "dr_brush_A",
      "start_bar": 12,
      "repeat": 2
    },
    {
      "pattern": "dr_brush_B",
      "start_bar": 14,
      "repeat": 2
    },
    {
      "pattern": "bass_ped_C_A",
      "start_bar": 0,
      "repeat": 4
    },
    {
      "pattern": "bass_ped_F_A",
      "start_bar": 4,
      "repeat": 2
    },
    {
      "pattern": "bass_ped_Ab_A",
      "start_bar": 6,
      "repeat": 2
    },
    {
      "pattern": "bass_ped_D_A",
      "start_bar": 8,
      "repeat": 1
    },
    {
      "pattern": "bass_ped_C_B",
      "start_bar": 9,
      "repeat": 2
    },
    {
      "pattern": "pad_shadow_MA",
      "start_bar": 11,
      "repeat": 1
    },
    {
      "pattern": "bass_ped_F_B",
      "start_bar": 12,
      "repeat": 2
    },
    {
      "pattern": "bass_ped_Ab_B",
      "start_bar": 14,
      "repeat": 2
    },
    {
      "pattern": "ep_C_A",
      "start_bar": 0,
      "repeat": 1
    },
    {
      "pattern": "ep_C_B",
      "start_bar": 1,
      "repeat": 1
    },
    {
      "pattern": "ep_C_A",
      "start_bar": 2,
      "repeat": 1
    },
    {
      "pattern": "ep_Fm_A",
      "start_bar": 3,
      "repeat": 2
    },
    {
      "pattern": "brass_hit",
      "start_bar": 4,
      "repeat": 1
    },
    {
      "pattern": "ep_C_B",
      "start_bar": 5,
      "repeat": 1
    },
    {
      "pattern": "pad_frag_MA",
      "start_bar": 5,
      "repeat": 1
    },
    {
      "pattern": "ep_rest",
      "start_bar": 6,
      "repeat": 1
    },
    {
      "pattern": "ep_Ab_A",
      "start_bar": 7,
      "repeat": 1
    },
    {
      "pattern": "ep_Ddim_A",
      "start_bar": 8,
      "repeat": 1
    },
    {
      "pattern": "ep_C_B",
      "start_bar": 9,
      "repeat": 1
    },
    {
      "pattern": "pad_borrow_H",
      "start_bar": 9,
      "repeat": 1
    },
    {
      "pattern": "ep_C_A",
      "start_bar": 10,
      "repeat": 1
    },
    {
      "pattern": "ep_C_B",
      "start_bar": 11,
      "repeat": 1
    },
    {
      "pattern": "ep_Fm_B",
      "start_bar": 12,
      "repeat": 1
    },
    {
      "pattern": "brass_hit",
      "start_bar": 12,
      "repeat": 1
    },
    {
      "pattern": "ep_C_A",
      "start_bar": 13,
      "repeat": 1
    },
    {
      "pattern": "ep_Ab_B",
      "start_bar": 14,
      "repeat": 2
    }
  ]
}