{
  "format": "pattern-midi.v1",
  "global": {
    "ticks_per_quarter": 480,
    "time_signature": [
      4,
      4
    ],
    "tempo_bpm": 96,
    "bars": 16,
    "loop": true
  },
  "instruments": {
    "drums": {
      "channel": 10,
      "program": null
    },
    "bass": {
      "channel": 2,
      "program": 33
    },
    "ep": {
      "channel": 1,
      "program": 4
    },
    "pad": {
      "channel": 3,
      "program": 71
    },
    "brass": {
      "channel": 4,
      "program": 59
    }
  },
  "patterns": {
    "dr_rim_A": {
      "length_beats": 4,
      "drum_grid": {
        "resolution": 16,
        "swing": 0,
        "lanes": {
          "kick": {
            "pitch": 36,
            "vel": 78,
            "steps": [
              1,
              0,
              0,
              0,
              0,
              0,
              0,
              0,
              1,
              0,
              0,
              0,
              0,
              0,
              0,
              0
            ]
          },
          "rim": {
            "pitch": 37,
            "vel": 58,
            "steps": [
              1,
              0,
              1,
              0,
              1,
              0,
              1,
              0,
              1,
              0,
              1,
              0,
              1,
              0,
              1,
              0
            ]
          },
          "snare": {
            "pitch": 38,
            "vel": 46,
            "steps": [
              0,
              0,
              0,
              0,
              1,
              0,
              0,
              0,
              0,
              0,
              0,
              0,
              1,
              0,
              0,
              0
            ]
          }
        }
      }
    },
    "dr_rim_B": {
      "length_beats": 4,
      "drum_grid": {
        "resolution": 16,
        "swing": 0,
        "lanes": {
          "kick": {
            "pitch": 36,
            "vel": 78,
            "steps": [
              1,
              0,
              0,
              0,
              0,
              0,
              0,
              0,
              1,
              0,
              0,
              1,
              0,
              0,
              0,
              0
            ]
          },
          "rim": {
            "pitch": 37,
            "vel": 58,
            "steps": [
              1,
              0,
              1,
              0,
              1,
              0,
              1,
              0,
              1,
              0,
              1,
              0,
              1,
              0,
              0,
              0
            ]
          },
          "snare": {
            "pitch": 38,
            "vel": 46,
            "steps": [
              0,
              0,
              0,
              0,
              1,
              0,
              0,
              0,
              0,
              0,
              0,
              0,
              1,
              0,
              0,
              0
            ]
          }
        }
      }
    },
    "dr_break": {
      "length_beats": 4,
      "drum_grid": {
        "resolution": 16,
        "swing": 0,
        "lanes": {
          "kick": {
            "pitch": 36,
            "vel": 78,
            "steps": [
              1,
              0,
              0,
              0,
              0,
              0,
              0,
              0,
              1,
              0,
              0,
              0,
              0,
              0,
              0,
              0
            ]
          },
          "rim": {
            "pitch": 37,
            "vel": 56,
            "steps": [
              1,
              0,
              1,
              0,
              1,
              0,
              0,
              0,
              1,
              0,
              0,
              0,
              1,
              0,
              1,
              0
            ]
          },
          "snare": {
            "pitch": 38,
            "vel": 44,
            "steps": [
              0,
              0,
              0,
              0,
              1,
              0,
              0,
              0,
              0,
              0,
              0,
              0,
              0,
              0,
              0,
              0
            ]
          }
        }
      }
    },
    "bass_C_walkA": {
      "length_beats": 4,
      "notes": [
        {
          "instrument": "bass",
          "beat": 0,
          "dur": 2,
          "pitch": 36,
          "vel": 40
        },
        {
          "instrument": "bass",
          "beat": 2,
          "dur": 2,
          "pitch": 38,
          "vel": 38
        }
      ]
    },
    "bass_C_walkB": {
      "length_beats": 4,
      "notes": [
        {
          "instrument": "bass",
          "beat": 0,
          "dur": 2,
          "pitch": 36,
          "vel": 40
        },
        {
          "instrument": "bass",
          "beat": 2,
          "dur": 2,
          "pitch": 40,
          "vel": 38
        }
      ]
    },
    "bass_A_walkA": {
      "length_beats": 4,
      "notes": [
        {
          "instrument": "bass",
          "beat": 0,
          "dur": 2,
          "pitch": 33,
          "vel": 40
        },
        {
          "instrument": "bass",
          "beat": 2,
          "dur": 2,
          "pitch": 35,
          "vel": 38
        }
      ]
    },
    "bass_F_walk": {
      "length_beats": 4,
      "notes": [
        {
          "instrument": "bass",
          "beat": 0,
          "dur": 2,
          "pitch": 29,
          "vel": 40
        },
        {
          "instrument": "bass",
          "beat": 2,
          "dur": 2,
          "pitch": 32,
          "vel": 36
        }
      ]
    },
    "bass_Ab_walk": {
      "length_beats": 4,
      "notes": [
        {
          "instrument": "bass",
          "beat": 0,
          "dur": 2,
          "pitch": 32,
          "vel": 40
        },
        {
          "instrument": "bass",
          "beat": 2,
          "dur": 2,
          "pitch": 34,
          "vel": 38
        }
      ]
    },
    "bass_hold_C": {
      "length_beats": 4,
      "notes": [
        {
          "instrument": "bass",
          "beat": 0,
          "dur": 4,
          "pitch": 36,
          "vel": 36
        }
      ]
    },
    "bass_motif_upper_8b": {
      "length_beats": 8,
      "notes": [
        {
          "instrument": "bass",
          "beat": 0,
          "dur": 3.5,
          "pitch": 36,
          "vel": 38
        },
        {
          "instrument": "bass",
          "beat": 3.5,
          "dur": 0.5,
          "pitch": 50,
          "vel": 28
        },
        {
          "instrument": "bass",
          "beat": 4.5,
          "dur": 0.5,
          "pitch": 51,
          "vel": 28
        },
        {
          "instrument": "bass",
          "beat": 5,
          "dur": 3,
          "pitch": 50,
          "vel": 28
        }
      ]
    },
    "ep_C_off1": {
      "length_beats": 4,
      "notes": [
        {
          "instrument": "ep",
          "beat": 0.5,
          "dur": 3.5,
          "pitch": 64,
          "vel": 48
        },
        {
          "instrument": "ep",
          "beat": 0.5,
          "dur": 3.5,
          "pitch": 67,
          "vel": 48
        }
      ]
    },
    "ep_C_off2": {
      "length_beats": 4,
      "notes": [
        {
          "instrument": "ep",
          "beat": 1.5,
          "dur": 2.5,
          "pitch": 64,
          "vel": 48
        },
        {
          "instrument": "ep",
          "beat": 1.5,
          "dur": 2.5,
          "pitch": 67,
          "vel": 48
        }
      ]
    },
    "ep_C_on0": {
      "length_beats": 4,
      "notes": [
        {
          "instrument": "ep",
          "beat": 0,
          "dur": 4,
          "pitch": 64,
          "vel": 48
        },
        {
          "instrument": "ep",
          "beat": 0,
          "dur": 4,
          "pitch": 67,
          "vel": 48
        }
      ]
    },
    "ep_Am_off1": {
      "length_beats": 4,
      "notes": [
        {
          "instrument": "ep",
          "beat": 1.5,
          "dur": 2.5,
          "pitch": 60,
          "vel": 46
        },
        {
          "instrument": "ep",
          "beat": 1.5,
          "dur": 2.5,
          "pitch": 64,
          "vel": 46
        }
      ]
    },
    "ep_Am_off2": {
      "length_beats": 4,
      "notes": [
        {
          "instrument": "ep",
          "beat": 0.5,
          "dur": 3.5,
          "pitch": 60,
          "vel": 46
        },
        {
          "instrument": "ep",
          "beat": 0.5,
          "dur": 3.5,
          "pitch": 64,
          "vel": 46
        }
      ]
    },
    "ep_Fm_off1": {
      "length_beats": 4,
      "notes": [
        {
          "instrument": "ep",
          "beat": 0.5,
          "dur": 3.5,
          "pitch": 56,
          "vel": 46
        },
        {
          "instrument": "ep",
          "beat": 0.5,
          "dur": 3.5,
          "pitch": 60,
          "vel": 46
        }
      ]
    },
    "ep_Ab_off1": {
      "length_beats": 4,
      "notes": [
        {
          "instrument": "ep",
          "beat": 0.5,
          "dur": 3.5,
          "pitch": 60,
          "vel": 46
        },
        {
          "instrument": "ep",
          "beat": 0.5,
          "dur": 3.5,
          "pitch": 63,
          "vel": 46
        }
      ]
    },
    "ep_C_motifInner": {
      "length_beats": 4,
      "notes": [
        {
          "instrument": "ep",
          "beat": 0.5,
          "dur": 3.5,
          "pitch": 64,
          "vel": 48
        },
        {
          "instrument": "ep",
          "beat": 0.5,
          "dur": 3.5,
          "pitch": 67,
          "vel": 48
        },
        {
          "instrument": "ep",
          "beat": 2,
          "dur": 0.5,
          "pitch": 65,
          "vel": 32
        },
        {
          "instrument": "ep",
          "beat": 2.5,
          "dur": 0.5,
          "pitch": 67,
          "vel": 32
        },
        {
          "instrument": "ep",
          "beat": 3,
          "dur": 0.5,
          "pitch": 65,
          "vel": 32
        }
      ]
    },
    "pad_C_dyad_A": {
      "length_beats": 4,
      "notes": [
        {
          "instrument": "pad",
          "beat": 0,
          "dur": 4,
          "pitch": 48,
          "vel": 26
        },
        {
          "instrument": "pad",
          "beat": 0,
          "dur": 4,
          "pitch": 55,
          "vel": 26
        }
      ]
    },
    "pad_C_dyad_B": {
      "length_beats": 4,
      "notes": [
        {
          "instrument": "pad",
          "beat": 0,
          "dur": 4,
          "pitch": 43,
          "vel": 26
        },
        {
          "instrument": "pad",
          "beat": 0,
          "dur": 4,
          "pitch": 48,
          "vel": 26
        }
      ]
    },
    "pad_Am_dyad_A": {
      "length_beats": 4,
      "notes": [
        {
          "instrument": "pad",
          "beat": 0,
          "dur": 4,
          "pitch": 45,
          "vel": 25
        },
        {
          "instrument": "pad",
          "beat": 0,
          "dur": 4,
          "pitch": 52,
          "vel": 25
        }
      ]
    },
    "pad_Am_dyad_B": {
      "length_beats": 4,
      "notes": [
        {
          "instrument": "pad",
          "beat": 0,
          "dur": 4,
          "pitch": 52,
          "vel": 25
        },
        {
          "instrument": "pad",
          "beat": 0,
          "dur": 4,
          "pitch": 57,
          "vel": 25
        }
      ]
    },
    "pad_borrow_H": {
      "length_beats": 4,
      "notes": [
        {
          "instrument": "pad",
          "beat": 0,
          "dur": 4,
          "pitch": 41,
          "vel": 28
        },
        {
          "instrument": "pad",
          "beat": 0,
          "dur": 4,
          "pitch": 44,
          "vel": 28
        }
      ]
    },
    "pad_motifA_hi": {
      "length_beats": 4,
      "notes": [
        {
          "instrument": "pad",
          "beat": 0.5,
          "dur": 0.5,
          "pitch": 64,
          "vel": 22
        },
        {
          "instrument": "pad",
          "beat": 1,
          "dur": 0.5,
          "pitch": 65,
          "vel": 22
        },
        {
          "instrument": "pad",
          "beat": 1.5,
          "dur": 0.5,
          "pitch": 64,
          "vel": 22
        }
      ]
    },
    "pad_motifA_lo": {
      "length_beats": 4,
      "notes": [
        {
          "instrument": "pad",
          "beat": 0.5,
          "dur": 0.5,
          "pitch": 50,
          "vel": 22
        },
        {
          "instrument": "pad",
          "beat": 1,
          "dur": 0.5,
          "pitch": 51,
          "vel": 22
        },
        {
          "instrument": "pad",
          "beat": 1.5,
          "dur": 0.5,
          "pitch": 50,
          "vel": 22
        }
      ]
    },
    "brass_hit1": {
      "length_beats": 4,
      "notes": [
        {
          "instrument": "brass",
          "beat": 1,
          "dur": 0.5,
          "pitch": 70,
          "vel": 60
        }
      ]
    },
    "brass_hit2": {
      "length_beats": 4,
      "notes": [
        {
          "instrument": "brass",
          "beat": 3,
          "dur": 0.5,
          "pitch": 68,
          "vel": 60
        }
      ]
    }
  },
  "arrangement": [
    {
      "pattern": "dr_rim_A",
      "start_bar": 0,
      "repeat": 1
    },
    {
      "pattern": "dr_rim_B",
      "start_bar": 1,
      "repeat": 1
    },
    {
      "pattern": "dr_rim_A",
      "start_bar": 2,
      "repeat": 1
    },
    {
      "pattern": "dr_rim_B",
      "start_bar": 3,
      "repeat": 1
    },
    {
      "pattern": "dr_rim_A",
      "start_bar": 4,
      "repeat": 1
    },
    {
      "pattern": "dr_rim_B",
      "start_bar": 5,
      "repeat": 1
    },
    {
      "pattern": "dr_rim_A",
      "start_bar": 6,
      "repeat": 1
    },
    {
      "pattern": "dr_rim_B",
      "start_bar": 7,
      "repeat": 1
    },
    {
      "pattern": "dr_break",
      "start_bar": 8,
      "repeat": 1
    },
    {
      "pattern": "dr_rim_A",
      "start_bar": 9,
      "repeat": 1
    },
    {
      "pattern": "dr_rim_B",
      "start_bar": 10,
      "repeat": 1
    },
    {
      "pattern": "dr_rim_A",
      "start_bar": 11,
      "repeat": 1
    },
    {
      "pattern": "dr_rim_B",
      "start_bar": 12,
      "repeat": 1
    },
    {
      "pattern": "dr_rim_A",
      "start_bar": 13,
      "repeat": 1
    },
    {
      "pattern": "dr_rim_B",
      "start_bar": 14,
      "repeat": 1
    },
    {
      "pattern": "dr_rim_A",
      "start_bar": 15,
      "repeat": 1
    },
    {
      "pattern": "bass_C_walkA",
      "start_bar": 0,
      "repeat": 1
    },
    {
      "pattern": "bass_A_walkA",
      "start_bar": 1,
      "repeat": 2
    },
    {
      "pattern": "bass_C_walkB",
      "start_bar": 3,
      "repeat": 1
    },
    {
      "pattern": "bass_hold_C",
      "start_bar": 4,
      "repeat": 2
    },
    {
      "pattern": "bass_F_walk",
      "start_bar": 6,
      "repeat": 1
    },
    {
      "pattern": "bass_C_walkA",
      "start_bar": 7,
      "repeat": 1
    },
    {
      "pattern": "bass_motif_upper_8b",
      "start_bar": 8,
      "repeat": 1
    },
    {
      "pattern": "bass_A_walkA",
      "start_bar": 10,
      "repeat": 1
    },
    {
      "pattern": "bass_C_walkB",
      "start_bar": 11,
      "repeat": 1
    },
    {
      "pattern": "bass_Ab_walk",
      "start_bar": 12,
      "repeat": 1
    },
    {
      "pattern": "bass_C_walkA",
      "start_bar": 13,
      "repeat": 1
    },
    {
      "pattern": "bass_A_walkA",
      "start_bar": 14,
      "repeat": 1
    },
    {
      "pattern": "bass_C_walkB",
      "start_bar": 15,
      "repeat": 1
    },
    {
      "pattern": "ep_C_off1",
      "start_bar": 0,
      "repeat": 1
    },
    {
      "pattern": "ep_Am_off1",
      "start_bar": 1,
      "repeat": 1
    },
    {
      "pattern": "ep_Am_off2",
      "start_bar": 2,
      "repeat": 1
    },
    {
      "pattern": "ep_C_motifInner",
      "start_bar": 3,
      "repeat": 1
    },
    {
      "pattern": "ep_Ab_off1",
      "start_bar": 4,
      "repeat": 1
    },
    {
      "pattern": "ep_Fm_off1",
      "start_bar": 5,
      "repeat": 1
    },
    {
      "pattern": "ep_C_off2",
      "start_bar": 6,
      "repeat": 1
    },
    {
      "pattern": "ep_C_on0",
      "start_bar": 7,
      "repeat": 1
    },
    {
      "pattern": "ep_Am_off1",
      "start_bar": 8,
      "repeat": 1
    },
    {
      "pattern": "ep_Ab_off1",
      "start_bar": 9,
      "repeat": 1
    },
    {
      "pattern": "ep_C_off1",
      "start_bar": 11,
      "repeat": 1
    },
    {
      "pattern": "ep_Ab_off1",
      "start_bar": 12,
      "repeat": 1
    },
    {
      "pattern": "ep_C_off2",
      "start_bar": 13,
      "repeat": 1
    },
    {
      "pattern": "ep_Am_off2",
      "start_bar": 14,
      "repeat": 1
    },
    {
      "pattern": "ep_C_off1",
      "start_bar": 15,
      "repeat": 1
    },
    {
      "pattern": "pad_C_dyad_A",
      "start_bar": 0,
      "repeat": 1
    },
    {
      "pattern": "pad_Am_dyad_A",
      "start_bar": 1,
      "repeat": 1
    },
    {
      "pattern": "pad_Am_dyad_B",
      "start_bar": 2,
      "repeat": 1
    },
    {
      "pattern": "pad_motifA_hi",
      "start_bar": 3,
      "repeat": 1
    },
    {
      "pattern": "pad_C_dyad_B",
      "start_bar": 4,
      "repeat": 1
    },
    {
      "pattern": "pad_C_dyad_A",
      "start_bar": 5,
      "repeat": 1
    },
    {
      "pattern": "pad_borrow_H",
      "start_bar": 6,
      "repeat": 1
    },
    {
      "pattern": "pad_C_dyad_B",
      "start_bar": 7,
      "repeat": 1
    },
    {
      "pattern": "pad_Am_dyad_A",
      "start_bar": 8,
      "repeat": 1
    },
    {
      "pattern": "pad_motifA_lo",
      "start_bar": 9,
      "repeat": 1
    },
    {
      "pattern": "pad_Am_dyad_B",
      "start_bar": 10,
      "repeat": 1
    },
    {
      "pattern": "pad_C_dyad_A",
      "start_bar": 13,
      "repeat": 1
    },
    {
      "pattern": "pad_Am_dyad_A",
      "start_bar": 14,
      "repeat": 1
    },
    {
      "pattern": "pad_C_dyad_B",
      "start_bar": 15,
      "repeat": 1
    },
    {
      "pattern": "brass_hit1",
      "start_bar": 11,
      "repeat": 1
    },
    {
      "pattern": "brass_hit2",
      "start_bar": 12,
      "repeat": 1
    }
  ]
}