{
  "format": "pattern-midi.v1",
  "global": {
    "ticks_per_quarter": 480,
    "time_signature": [
      4,
      4
    ],
    "tempo_bpm": 92,
    "bars": 16,
    "loop": true
  },
  "instruments": {
    "drums": {
      "channel": 10,
      "program": null
    },
    "ep": {
      "channel": 1,
      "program": 4
    },
    "bass": {
      "channel": 2,
      "program": 38
    },
    "vibes": {
      "channel": 3,
      "program": 11
    },
    "brass": {
      "channel": 4,
      "program": 59
    }
  },
  "patterns": {
    "dr_A": {
      "length_beats": 4,
      "drum_grid": {
        "resolution": 16,
        "swing": 0,
        "lanes": {
          "kick": {
            "pitch": 36,
            "vel": 86,
            "steps": [
              1,
              0,
              0,
              0,
              0,
              0,
              1,
              0,
              1,
              0,
              0,
              0,
              0,
              0,
              0,
              0
            ]
          },
          "rim": {
            "pitch": 37,
            "vel": 70,
            "steps": [
              0,
              0,
              0,
              0,
              1,
              0,
              0,
              0,
              0,
              0,
              0,
              0,
              1,
              0,
              0,
              0
            ]
          },
          "snare_brush": {
            "pitch": 38,
            "vel": 44,
            "steps": [
              0,
              0,
              0,
              0,
              0,
              0,
              0,
              0,
              0,
              0,
              1,
              0,
              0,
              0,
              0,
              0
            ]
          },
          "hat": {
            "pitch": 42,
            "vel": 52,
            "steps": [
              1,
              0,
              1,
              0,
              1,
              0,
              1,
              0,
              1,
              0,
              1,
              0,
              1,
              0,
              1,
              0
            ]
          }
        }
      }
    },
    "dr_B": {
      "length_beats": 4,
      "drum_grid": {
        "resolution": 16,
        "swing": 0,
        "lanes": {
          "kick": {
            "pitch": 36,
            "vel": 84,
            "steps": [
              1,
              0,
              0,
              0,
              0,
              0,
              1,
              0,
              0,
              0,
              1,
              0,
              0,
              0,
              0,
              0
            ]
          },
          "rim": {
            "pitch": 37,
            "vel": 68,
            "steps": [
              0,
              0,
              0,
              0,
              1,
              0,
              0,
              0,
              0,
              0,
              0,
              0,
              1,
              0,
              0,
              0
            ]
          },
          "snare_brush": {
            "pitch": 38,
            "vel": 42,
            "steps": [
              0,
              0,
              0,
              0,
              0,
              0,
              0,
              0,
              0,
              0,
              0,
              1,
              0,
              0,
              0,
              0
            ]
          },
          "hat": {
            "pitch": 42,
            "vel": 50,
            "steps": [
              1,
              0,
              1,
              0,
              1,
              0,
              1,
              0,
              1,
              0,
              1,
              0,
              1,
              0,
              1,
              0
            ]
          }
        }
      }
    },
    "bass_C_A": {
      "length_beats": 4,
      "notes": [
        {
          "instrument": "bass",
          "beat": 0,
          "dur": 4,
          "pitch": 36,
          "vel": 42
        }
      ]
    },
    "bass_C_B": {
      "length_beats": 4,
      "notes": [
        {
          "instrument": "bass",
          "beat": 0,
          "dur": 4,
          "pitch": 36,
          "vel": 40
        }
      ]
    },
    "bass_A": {
      "length_beats": 4,
      "notes": [
        {
          "instrument": "bass",
          "beat": 0,
          "dur": 4,
          "pitch": 33,
          "vel": 42
        }
      ]
    },
    "bass_F": {
      "length_beats": 4,
      "notes": [
        {
          "instrument": "bass",
          "beat": 0,
          "dur": 4,
          "pitch": 29,
          "vel": 42
        }
      ]
    },
    "bass_Ab": {
      "length_beats": 4,
      "notes": [
        {
          "instrument": "bass",
          "beat": 0,
          "dur": 4,
          "pitch": 32,
          "vel": 42
        }
      ]
    },
    "bass_frag_hi": {
      "length_beats": 4,
      "notes": [
        {
          "instrument": "bass",
          "beat": 0,
          "dur": 2,
          "pitch": 52,
          "vel": 30
        },
        {
          "instrument": "bass",
          "beat": 2,
          "dur": 2,
          "pitch": 53,
          "vel": 28
        }
      ]
    },
    "ep_C_A": {
      "length_beats": 4,
      "notes": [
        {
          "instrument": "ep",
          "beat": 0,
          "dur": 3.75,
          "pitch": 60,
          "vel": 50
        },
        {
          "instrument": "ep",
          "beat": 0,
          "dur": 3.75,
          "pitch": 64,
          "vel": 50
        },
        {
          "instrument": "ep",
          "beat": 0,
          "dur": 3.75,
          "pitch": 69,
          "vel": 48
        }
      ]
    },
    "ep_C_B": {
      "length_beats": 4,
      "notes": [
        {
          "instrument": "ep",
          "beat": 0,
          "dur": 3.75,
          "pitch": 60,
          "vel": 48
        },
        {
          "instrument": "ep",
          "beat": 0,
          "dur": 3.75,
          "pitch": 65,
          "vel": 48
        },
        {
          "instrument": "ep",
          "beat": 0,
          "dur": 3.75,
          "pitch": 69,
          "vel": 46
        }
      ]
    },
    "ep_G": {
      "length_beats": 4,
      "notes": [
        {
          "instrument": "ep",
          "beat": 0,
          "dur": 3.75,
          "pitch": 55,
          "vel": 48
        },
        {
          "instrument": "ep",
          "beat": 0,
          "dur": 3.75,
          "pitch": 59,
          "vel": 48
        },
        {
          "instrument": "ep",
          "beat": 0,
          "dur": 3.75,
          "pitch": 62,
          "vel": 46
        }
      ]
    },
    "ep_Adim": {
      "length_beats": 4,
      "notes": [
        {
          "instrument": "ep",
          "beat": 0,
          "dur": 3.75,
          "pitch": 59,
          "vel": 48
        },
        {
          "instrument": "ep",
          "beat": 0,
          "dur": 3.75,
          "pitch": 63,
          "vel": 46
        },
        {
          "instrument": "ep",
          "beat": 0,
          "dur": 3.75,
          "pitch": 69,
          "vel": 46
        }
      ]
    },
    "ep_borrow_dyad": {
      "length_beats": 4,
      "notes": [
        {
          "instrument": "ep",
          "beat": 0,
          "dur": 3.75,
          "pitch": 56,
          "vel": 46
        },
        {
          "instrument": "ep",
          "beat": 0,
          "dur": 3.75,
          "pitch": 63,
          "vel": 44
        }
      ]
    },
    "ep_01_MA": {
      "length_beats": 4,
      "notes": [
        {
          "instrument": "ep",
          "beat": 0,
          "dur": 0.75,
          "pitch": 64,
          "vel": 34
        },
        {
          "instrument": "ep",
          "beat": 1,
          "dur": 0.5,
          "pitch": 65,
          "vel": 34
        },
        {
          "instrument": "ep",
          "beat": 2,
          "dur": 0.5,
          "pitch": 67,
          "vel": 34
        },
        {
          "instrument": "ep",
          "beat": 2.5,
          "dur": 0.5,
          "pitch": 65,
          "vel": 33
        },
        {
          "instrument": "ep",
          "beat": 3,
          "dur": 0.75,
          "pitch": 64,
          "vel": 34
        }
      ]
    },
    "ep_02_MA": {
      "length_beats": 4,
      "notes": [
        {
          "instrument": "ep",
          "beat": 0,
          "dur": 0.75,
          "pitch": 74,
          "vel": 34
        },
        {
          "instrument": "ep",
          "beat": 1,
          "dur": 0.5,
          "pitch": 75,
          "vel": 34
        },
        {
          "instrument": "ep",
          "beat": 2,
          "dur": 0.5,
          "pitch": 77,
          "vel": 34
        },
        {
          "instrument": "ep",
          "beat": 2.5,
          "dur": 0.5,
          "pitch": 75,
          "vel": 33
        },
        {
          "instrument": "ep",
          "beat": 3,
          "dur": 0.75,
          "pitch": 74,
          "vel": 34
        }
      ]
    },
    "vibes_tick_A": {
      "length_beats": 4,
      "notes": [
        {
          "instrument": "vibes",
          "beat": 1,
          "dur": 1,
          "pitch": 79,
          "vel": 44
        },
        {
          "instrument": "vibes",
          "beat": 3,
          "dur": 1,
          "pitch": 81,
          "vel": 44
        }
      ]
    },
    "vibes_tick_B": {
      "length_beats": 4,
      "notes": [
        {
          "instrument": "vibes",
          "beat": 1,
          "dur": 1.25,
          "pitch": 76,
          "vel": 44
        }
      ]
    },
    "vibes_long": {
      "length_beats": 4,
      "notes": [
        {
          "instrument": "vibes",
          "beat": 0,
          "dur": 2,
          "pitch": 74,
          "vel": 42
        }
      ]
    },
    "vibes_frag_MA": {
      "length_beats": 4,
      "notes": [
        {
          "instrument": "vibes",
          "beat": 1.5,
          "dur": 0.5,
          "pitch": 75,
          "vel": 24
        },
        {
          "instrument": "vibes",
          "beat": 2.5,
          "dur": 0.5,
          "pitch": 77,
          "vel": 24
        }
      ]
    },
    "brass_hit": {
      "length_beats": 4,
      "notes": [
        {
          "instrument": "brass",
          "beat": 2,
          "dur": 0.5,
          "pitch": 70,
          "vel": 62
        }
      ]
    }
  },
  "arrangement": [
    {
      "pattern": "dr_A",
      "start_bar": 0,
      "repeat": 1
    },
    {
      "pattern": "bass_C_A",
      "start_bar": 0,
      "repeat": 1
    },
    {
      "pattern": "ep_C_A",
      "start_bar": 0,
      "repeat": 1
    },
    {
      "pattern": "vibes_tick_A",
      "start_bar": 0,
      "repeat": 1
    },
    {
      "pattern": "dr_B",
      "start_bar": 1,
      "repeat": 1
    },
    {
      "pattern": "bass_C_B",
      "start_bar": 1,
      "repeat": 1
    },
    {
      "pattern": "ep_C_B",
      "start_bar": 1,
      "repeat": 1
    },
    {
      "pattern": "dr_A",
      "start_bar": 2,
      "repeat": 1
    },
    {
      "pattern": "bass_A",
      "start_bar": 2,
      "repeat": 1
    },
    {
      "pattern": "ep_G",
      "start_bar": 2,
      "repeat": 1
    },
    {
      "pattern": "dr_B",
      "start_bar": 3,
      "repeat": 1
    },
    {
      "pattern": "bass_F",
      "start_bar": 3,
      "repeat": 1
    },
    {
      "pattern": "ep_G",
      "start_bar": 3,
      "repeat": 1
    },
    {
      "pattern": "vibes_tick_B",
      "start_bar": 3,
      "repeat": 1
    },
    {
      "pattern": "dr_A",
      "start_bar": 4,
      "repeat": 1
    },
    {
      "pattern": "bass_C_A",
      "start_bar": 4,
      "repeat": 1
    },
    {
      "pattern": "ep_C_A",
      "start_bar": 4,
      "repeat": 1
    },
    {
      "pattern": "dr_B",
      "start_bar": 5,
      "repeat": 1
    },
    {
      "pattern": "bass_C_B",
      "start_bar": 5,
      "repeat": 1
    },
    {
      "pattern": "ep_Adim",
      "start_bar": 5,
      "repeat": 1
    },
    {
      "pattern": "dr_A",
      "start_bar": 6,
      "repeat": 1
    },
    {
      "pattern": "bass_frag_hi",
      "start_bar": 6,
      "repeat": 1
    },
    {
      "pattern": "ep_01_MA",
      "start_bar": 6,
      "repeat": 1
    },
    {
      "pattern": "dr_B",
      "start_bar": 7,
      "repeat": 1
    },
    {
      "pattern": "bass_C_A",
      "start_bar": 7,
      "repeat": 1
    },
    {
      "pattern": "ep_C_B",
      "start_bar": 7,
      "repeat": 1
    },
    {
      "pattern": "vibes_tick_A",
      "start_bar": 7,
      "repeat": 1
    },
    {
      "pattern": "dr_A",
      "start_bar": 8,
      "repeat": 1
    },
    {
      "pattern": "bass_Ab",
      "start_bar": 8,
      "repeat": 1
    },
    {
      "pattern": "ep_borrow_dyad",
      "start_bar": 8,
      "repeat": 1
    },
    {
      "pattern": "dr_B",
      "start_bar": 9,
      "repeat": 1
    },
    {
      "pattern": "bass_C_B",
      "start_bar": 9,
      "repeat": 1
    },
    {
      "pattern": "ep_C_A",
      "start_bar": 9,
      "repeat": 1
    },
    {
      "pattern": "vibes_tick_B",
      "start_bar": 9,
      "repeat": 1
    },
    {
      "pattern": "dr_A",
      "start_bar": 10,
      "repeat": 1
    },
    {
      "pattern": "bass_A",
      "start_bar": 10,
      "repeat": 1
    },
    {
      "pattern": "vibes_long",
      "start_bar": 10,
      "repeat": 1
    },
    {
      "pattern": "dr_B",
      "start_bar": 11,
      "repeat": 1
    },
    {
      "pattern": "bass_F",
      "start_bar": 11,
      "repeat": 1
    },
    {
      "pattern": "ep_Adim",
      "start_bar": 11,
      "repeat": 1
    },
    {
      "pattern": "dr_A",
      "start_bar": 12,
      "repeat": 1
    },
    {
      "pattern": "bass_C_A",
      "start_bar": 12,
      "repeat": 1
    },
    {
      "pattern": "ep_C_B",
      "start_bar": 12,
      "repeat": 1
    },
    {
      "pattern": "brass_hit",
      "start_bar": 12,
      "repeat": 1
    },
    {
      "pattern": "dr_B",
      "start_bar": 13,
      "repeat": 1
    },
    {
      "pattern": "bass_A",
      "start_bar": 13,
      "repeat": 1
    },
    {
      "pattern": "ep_G",
      "start_bar": 13,
      "repeat": 1
    },
    {
      "pattern": "dr_A",
      "start_bar": 14,
      "repeat": 1
    },
    {
      "pattern": "bass_C_B",
      "start_bar": 14,
      "repeat": 1
    },
    {
      "pattern": "ep_02_MA",
      "start_bar": 14,
      "repeat": 1
    },
    {
      "pattern": "vibes_frag_MA",
      "start_bar": 14,
      "repeat": 1
    },
    {
      "pattern": "dr_B",
      "start_bar": 15,
      "repeat": 1
    },
    {
      "pattern": "bass_C_A",
      "start_bar": 15,
      "repeat": 1
    },
    {
      "pattern": "ep_C_A",
      "start_bar": 15,
      "repeat": 1
    }
  ]
}