{
  "format": "pattern-midi.v1",
  "global": {
    "ticks_per_quarter": 480,
    "time_signature": [
      4,
      4
    ],
    "tempo_bpm": 92,
    "bars": 16,
    "loop": true
  },
  "instruments": {
    "drums": {
      "channel": 10,
      "program": null
    },
    "ep": {
      "channel": 1,
      "program": 4
    },
    "bass": {
      "channel": 2,
      "program": 34
    },
    "pad": {
      "channel": 3,
      "program": 89
    },
    "brass": {
      "channel": 4,
      "program": 59
    }
  },
  "patterns": {
    "dr_brush_A": {
      "length_beats": 4,
      "drum_grid": {
        "resolution": 16,
        "swing": 0.0,
        "lanes": {
          "kick": {
            "pitch": 36,
            "vel": 58,
            "steps": [
              1,
              0,
              0,
              0,
              0,
              0,
              0,
              0,
              1,
              0,
              0,
              0,
              0,
              0,
              0,
              0
            ]
          },
          "rim": {
            "pitch": 37,
            "vel": 46,
            "steps": [
              0,
              0,
              0,
              0,
              1,
              0,
              0,
              0,
              0,
              0,
              0,
              0,
              1,
              0,
              0,
              0
            ]
          },
          "snare_brush": {
            "pitch": 38,
            "vel": 52,
            "steps": [
              0,
              0,
              0,
              0,
              0,
              0,
              0,
              0,
              0,
              1,
              0,
              0,
              0,
              0,
              0,
              0
            ]
          },
          "hat": {
            "pitch": 42,
            "vel": 34,
            "steps": [
              1,
              0,
              1,
              0,
              1,
              0,
              1,
              0,
              1,
              0,
              1,
              0,
              1,
              0,
              1,
              0
            ]
          }
        }
      }
    },
    "dr_brush_B": {
      "length_beats": 4,
      "drum_grid": {
        "resolution": 16,
        "swing": 0.0,
        "lanes": {
          "kick": {
            "pitch": 36,
            "vel": 58,
            "steps": [
              1,
              0,
              0,
              0,
              0,
              0,
              1,
              0,
              1,
              0,
              0,
              0,
              0,
              0,
              0,
              0
            ]
          },
          "rim": {
            "pitch": 37,
            "vel": 46,
            "steps": [
              0,
              0,
              0,
              0,
              1,
              0,
              0,
              0,
              0,
              0,
              0,
              0,
              1,
              0,
              0,
              0
            ]
          },
          "snare_brush": {
            "pitch": 38,
            "vel": 52,
            "steps": [
              0,
              0,
              0,
              0,
              0,
              0,
              0,
              0,
              0,
              1,
              0,
              0,
              0,
              0,
              0,
              0
            ]
          },
          "hat": {
            "pitch": 42,
            "vel": 34,
            "steps": [
              1,
              0,
              1,
              0,
              1,
              0,
              1,
              0,
              1,
              0,
              0,
              0,
              1,
              0,
              1,
              0
            ]
          }
        }
      }
    },
    "hat_late_MC": {
      "length_beats": 4,
      "drum_grid": {
        "resolution": 16,
        "swing": 0.0,
        "lanes": {
          "kick": {
            "pitch": 36,
            "vel": 58,
            "steps": [
              1,
              0,
              0,
              0,
              0,
              0,
              0,
              0,
              1,
              0,
              0,
              0,
              0,
              0,
              0,
              0
            ]
          },
          "rim": {
            "pitch": 37,
            "vel": 46,
            "steps": [
              0,
              0,
              0,
              0,
              1,
              0,
              0,
              0,
              0,
              0,
              0,
              0,
              1,
              0,
              0,
              0
            ]
          },
          "snare_brush": {
            "pitch": 38,
            "vel": 52,
            "steps": [
              0,
              0,
              0,
              0,
              0,
              0,
              0,
              0,
              0,
              1,
              0,
              0,
              0,
              0,
              0,
              0
            ]
          },
          "hat": {
            "pitch": 42,
            "vel": 34,
            "steps": [
              0,
              0,
              1,
              0,
              1,
              0,
              1,
              0,
              1,
              0,
              1,
              0,
              1,
              0,
              1,
              0
            ]
          }
        }
      }
    },
    "bass_C": {
      "length_beats": 4,
      "notes": [
        {
          "instrument": "bass",
          "beat": 0.5,
          "dur": 0.4,
          "pitch": 36,
          "vel": 42
        },
        {
          "instrument": "bass",
          "beat": 2.0,
          "dur": 0.4,
          "pitch": 31,
          "vel": 42
        }
      ]
    },
    "bass_Am_A": {
      "length_beats": 4,
      "notes": [
        {
          "instrument": "bass",
          "beat": 0.5,
          "dur": 0.4,
          "pitch": 33,
          "vel": 42
        },
        {
          "instrument": "bass",
          "beat": 2.0,
          "dur": 0.4,
          "pitch": 40,
          "vel": 42
        }
      ]
    },
    "bass_Am_B": {
      "length_beats": 4,
      "notes": [
        {
          "instrument": "bass",
          "beat": 0.5,
          "dur": 0.4,
          "pitch": 33,
          "vel": 42
        },
        {
          "instrument": "bass",
          "beat": 2.0,
          "dur": 0.4,
          "pitch": 36,
          "vel": 42
        }
      ]
    },
    "bass_Dm_A": {
      "length_beats": 4,
      "notes": [
        {
          "instrument": "bass",
          "beat": 0.5,
          "dur": 0.4,
          "pitch": 38,
          "vel": 42
        },
        {
          "instrument": "bass",
          "beat": 2.0,
          "dur": 0.4,
          "pitch": 33,
          "vel": 42
        }
      ]
    },
    "bass_Dm_B": {
      "length_beats": 4,
      "notes": [
        {
          "instrument": "bass",
          "beat": 0.5,
          "dur": 0.4,
          "pitch": 38,
          "vel": 42
        },
        {
          "instrument": "bass",
          "beat": 2.0,
          "dur": 0.4,
          "pitch": 41,
          "vel": 42
        }
      ]
    },
    "bass_Em": {
      "length_beats": 4,
      "notes": [
        {
          "instrument": "bass",
          "beat": 0.5,
          "dur": 0.4,
          "pitch": 40,
          "vel": 42
        },
        {
          "instrument": "bass",
          "beat": 2.0,
          "dur": 0.4,
          "pitch": 35,
          "vel": 42
        }
      ]
    },
    "bass_hold_C8": {
      "length_beats": 8,
      "notes": [
        {
          "instrument": "bass",
          "beat": 0.5,
          "dur": 0.4,
          "pitch": 36,
          "vel": 40
        },
        {
          "instrument": "bass",
          "beat": 2.0,
          "dur": 0.4,
          "pitch": 31,
          "vel": 40
        },
        {
          "instrument": "bass",
          "beat": 4.5,
          "dur": 0.4,
          "pitch": 36,
          "vel": 40
        },
        {
          "instrument": "bass",
          "beat": 6.0,
          "dur": 0.4,
          "pitch": 31,
          "vel": 40
        }
      ]
    },
    "bass_frag_MA8": {
      "length_beats": 8,
      "notes": [
        {
          "instrument": "bass",
          "beat": 0.5,
          "dur": 0.35,
          "pitch": 42,
          "vel": 30
        },
        {
          "instrument": "bass",
          "beat": 2.0,
          "dur": 0.35,
          "pitch": 43,
          "vel": 30
        },
        {
          "instrument": "bass",
          "beat": 4.5,
          "dur": 0.35,
          "pitch": 42,
          "vel": 30
        }
      ]
    },
    "ep_A": {
      "length_beats": 4,
      "notes": [
        {
          "instrument": "ep",
          "beat": 0.0,
          "dur": 0.35,
          "pitch": 64,
          "vel": 48
        },
        {
          "instrument": "ep",
          "beat": 1.5,
          "dur": 0.35,
          "pitch": 67,
          "vel": 48
        },
        {
          "instrument": "ep",
          "beat": 2.5,
          "dur": 0.35,
          "pitch": 71,
          "vel": 48
        }
      ]
    },
    "ep_BA": {
      "length_beats": 4,
      "notes": [
        {
          "instrument": "ep",
          "beat": 0.0,
          "dur": 0.35,
          "pitch": 57,
          "vel": 46
        },
        {
          "instrument": "ep",
          "beat": 1.5,
          "dur": 0.35,
          "pitch": 60,
          "vel": 46
        },
        {
          "instrument": "ep",
          "beat": 2.5,
          "dur": 0.35,
          "pitch": 64,
          "vel": 46
        }
      ]
    },
    "ep_BB": {
      "length_beats": 4,
      "notes": [
        {
          "instrument": "ep",
          "beat": 0.0,
          "dur": 0.35,
          "pitch": 64,
          "vel": 46
        },
        {
          "instrument": "ep",
          "beat": 1.5,
          "dur": 0.35,
          "pitch": 67,
          "vel": 46
        },
        {
          "instrument": "ep",
          "beat": 2.5,
          "dur": 0.35,
          "pitch": 60,
          "vel": 46
        }
      ]
    },
    "ep_C": {
      "length_beats": 4,
      "notes": [
        {
          "instrument": "ep",
          "beat": 0.0,
          "dur": 0.35,
          "pitch": 65,
          "vel": 46
        },
        {
          "instrument": "ep",
          "beat": 1.5,
          "dur": 0.35,
          "pitch": 64,
          "vel": 46
        },
        {
          "instrument": "ep",
          "beat": 2.5,
          "dur": 0.35,
          "pitch": 62,
          "vel": 46
        }
      ]
    },
    "ep_D": {
      "length_beats": 4,
      "notes": [
        {
          "instrument": "ep",
          "beat": 0.0,
          "dur": 0.35,
          "pitch": 67,
          "vel": 46
        },
        {
          "instrument": "ep",
          "beat": 1.5,
          "dur": 0.35,
          "pitch": 66,
          "vel": 46
        },
        {
          "instrument": "ep",
          "beat": 2.5,
          "dur": 0.35,
          "pitch": 64,
          "vel": 46
        }
      ]
    },
    "ep_frag_MA": {
      "length_beats": 4,
      "notes": [
        {
          "instrument": "ep",
          "beat": 0.0,
          "dur": 0.25,
          "pitch": 62,
          "vel": 30
        },
        {
          "instrument": "ep",
          "beat": 0.5,
          "dur": 0.25,
          "pitch": 63,
          "vel": 30
        },
        {
          "instrument": "ep",
          "beat": 1.0,
          "dur": 0.25,
          "pitch": 62,
          "vel": 30
        }
      ]
    },
    "ep_rest": {
      "length_beats": 4,
      "notes": []
    },
    "pad_C_dyad": {
      "length_beats": 4,
      "notes": [
        {
          "instrument": "pad",
          "beat": 0.0,
          "dur": 4.0,
          "pitch": 48,
          "vel": 26
        },
        {
          "instrument": "pad",
          "beat": 0.0,
          "dur": 4.0,
          "pitch": 55,
          "vel": 26
        }
      ]
    },
    "pad_Dm_dyad": {
      "length_beats": 4,
      "notes": [
        {
          "instrument": "pad",
          "beat": 0.0,
          "dur": 4.0,
          "pitch": 50,
          "vel": 26
        },
        {
          "instrument": "pad",
          "beat": 0.0,
          "dur": 4.0,
          "pitch": 57,
          "vel": 26
        }
      ]
    },
    "pad_Am_dyad": {
      "length_beats": 4,
      "notes": [
        {
          "instrument": "pad",
          "beat": 0.0,
          "dur": 4.0,
          "pitch": 45,
          "vel": 26
        },
        {
          "instrument": "pad",
          "beat": 0.0,
          "dur": 4.0,
          "pitch": 52,
          "vel": 26
        }
      ]
    },
    "pad_color_H": {
      "length_beats": 4,
      "notes": [
        {
          "instrument": "pad",
          "beat": 0.0,
          "dur": 4.0,
          "pitch": 53,
          "vel": 26
        },
        {
          "instrument": "pad",
          "beat": 0.0,
          "dur": 4.0,
          "pitch": 56,
          "vel": 26
        }
      ]
    },
    "pad_frag_MA": {
      "length_beats": 4,
      "notes": [
        {
          "instrument": "pad",
          "beat": 0.25,
          "dur": 0.2,
          "pitch": 74,
          "vel": 22
        },
        {
          "instrument": "pad",
          "beat": 0.75,
          "dur": 0.2,
          "pitch": 75,
          "vel": 22
        },
        {
          "instrument": "pad",
          "beat": 1.25,
          "dur": 0.2,
          "pitch": 77,
          "vel": 22
        },
        {
          "instrument": "pad",
          "beat": 1.75,
          "dur": 0.2,
          "pitch": 75,
          "vel": 22
        },
        {
          "instrument": "pad",
          "beat": 2.25,
          "dur": 0.2,
          "pitch": 74,
          "vel": 22
        }
      ]
    },
    "brass_hit1": {
      "length_beats": 4,
      "notes": [
        {
          "instrument": "brass",
          "beat": 1.0,
          "dur": 0.2,
          "pitch": 70,
          "vel": 62
        }
      ]
    },
    "brass_hit2": {
      "length_beats": 4,
      "notes": [
        {
          "instrument": "brass",
          "beat": 1.0,
          "dur": 0.2,
          "pitch": 74,
          "vel": 62
        }
      ]
    }
  },
  "arrangement": [
    {
      "pattern": "dr_brush_A",
      "start_bar": 0,
      "repeat": 4
    },
    {
      "pattern": "dr_brush_B",
      "start_bar": 4,
      "repeat": 4
    },
    {
      "pattern": "hat_late_MC",
      "start_bar": 8,
      "repeat": 1
    },
    {
      "pattern": "dr_brush_A",
      "start_bar": 9,
      "repeat": 3
    },
    {
      "pattern": "dr_brush_B",
      "start_bar": 12,
      "repeat": 4
    },
    {
      "pattern": "bass_C",
      "start_bar": 0,
      "repeat": 1
    },
    {
      "pattern": "bass_Am_A",
      "start_bar": 1,
      "repeat": 1
    },
    {
      "pattern": "bass_Dm_A",
      "start_bar": 2,
      "repeat": 1
    },
    {
      "pattern": "bass_Am_B",
      "start_bar": 3,
      "repeat": 1
    },
    {
      "pattern": "bass_frag_MA8",
      "start_bar": 4,
      "repeat": 1
    },
    {
      "pattern": "bass_hold_C8",
      "start_bar": 6,
      "repeat": 1
    },
    {
      "pattern": "bass_Dm_B",
      "start_bar": 8,
      "repeat": 1
    },
    {
      "pattern": "bass_Em",
      "start_bar": 9,
      "repeat": 1
    },
    {
      "pattern": "bass_Am_A",
      "start_bar": 10,
      "repeat": 1
    },
    {
      "pattern": "bass_Dm_A",
      "start_bar": 11,
      "repeat": 1
    },
    {
      "pattern": "bass_C",
      "start_bar": 12,
      "repeat": 1
    },
    {
      "pattern": "bass_Am_B",
      "start_bar": 13,
      "repeat": 1
    },
    {
      "pattern": "bass_Dm_B",
      "start_bar": 14,
      "repeat": 1
    },
    {
      "pattern": "bass_Dm_A",
      "start_bar": 15,
      "repeat": 1
    },
    {
      "pattern": "ep_A",
      "start_bar": 0,
      "repeat": 1
    },
    {
      "pattern": "ep_BA",
      "start_bar": 1,
      "repeat": 1
    },
    {
      "pattern": "ep_C",
      "start_bar": 2,
      "repeat": 1
    },
    {
      "pattern": "ep_BB",
      "start_bar": 3,
      "repeat": 1
    },
    {
      "pattern": "ep_A",
      "start_bar": 4,
      "repeat": 1
    },
    {
      "pattern": "ep_frag_MA",
      "start_bar": 5,
      "repeat": 1
    },
    {
      "pattern": "ep_C",
      "start_bar": 6,
      "repeat": 1
    },
    {
      "pattern": "ep_D",
      "start_bar": 7,
      "repeat": 1
    },
    {
      "pattern": "ep_BA",
      "start_bar": 8,
      "repeat": 1
    },
    {
      "pattern": "ep_rest",
      "start_bar": 9,
      "repeat": 1
    },
    {
      "pattern": "ep_C",
      "start_bar": 10,
      "repeat": 1
    },
    {
      "pattern": "ep_BB",
      "start_bar": 11,
      "repeat": 1
    },
    {
      "pattern": "ep_A",
      "start_bar": 12,
      "repeat": 1
    },
    {
      "pattern": "ep_D",
      "start_bar": 13,
      "repeat": 1
    },
    {
      "pattern": "ep_BA",
      "start_bar": 14,
      "repeat": 1
    },
    {
      "pattern": "ep_C",
      "start_bar": 15,
      "repeat": 1
    },
    {
      "pattern": "pad_C_dyad",
      "start_bar": 0,
      "repeat": 1
    },
    {
      "pattern": "pad_frag_MA",
      "start_bar": 2,
      "repeat": 1
    },
    {
      "pattern": "pad_Dm_dyad",
      "start_bar": 8,
      "repeat": 1
    },
    {
      "pattern": "pad_color_H",
      "start_bar": 10,
      "repeat": 1
    },
    {
      "pattern": "pad_Am_dyad",
      "start_bar": 14,
      "repeat": 1
    },
    {
      "pattern": "pad_Dm_dyad",
      "start_bar": 15,
      "repeat": 1
    },
    {
      "pattern": "brass_hit1",
      "start_bar": 4,
      "repeat": 1
    },
    {
      "pattern": "brass_hit2",
      "start_bar": 12,
      "repeat": 1
    }
  ]
}