{
  "format": "pattern-midi.v1",
  "global": {
    "ticks_per_quarter": 480,
    "time_signature": [
      4,
      4
    ],
    "tempo_bpm": 96,
    "bars": 16,
    "loop": true
  },
  "instruments": {
    "drums": {
      "channel": 10,
      "program": null
    },
    "ep": {
      "channel": 1,
      "program": 4
    },
    "bass": {
      "channel": 2,
      "program": 38
    },
    "pad": {
      "channel": 4,
      "program": 88
    },
    "brass": {
      "channel": 5,
      "program": 58
    }
  },
  "patterns": {
    "dr_tick_A": {
      "length_beats": 4,
      "drum_grid": {
        "resolution": 16,
        "lanes": {
          "kick": {
            "pitch": 36,
            "vel": 64,
            "steps": [
              1,
              0,
              0,
              0,
              0,
              0,
              0,
              0,
              1,
              0,
              0,
              0,
              0,
              0,
              0,
              0
            ]
          },
          "rim": {
            "pitch": 37,
            "vel": 52,
            "steps": [
              0,
              0,
              0,
              0,
              1,
              0,
              0,
              0,
              0,
              0,
              0,
              0,
              1,
              0,
              0,
              0
            ]
          },
          "snare_brush": {
            "pitch": 38,
            "vel": 44,
            "steps": [
              0,
              0,
              0,
              0,
              0,
              0,
              0,
              0,
              0,
              0,
              0,
              0,
              1,
              0,
              0,
              0
            ]
          },
          "hat": {
            "pitch": 42,
            "vel": 38,
            "steps": [
              1,
              0,
              0,
              0,
              1,
              0,
              0,
              0,
              1,
              0,
              0,
              0,
              1,
              0,
              0,
              0
            ]
          }
        }
      }
    },
    "dr_tick_B": {
      "length_beats": 4,
      "drum_grid": {
        "resolution": 16,
        "lanes": {
          "kick": {
            "pitch": 36,
            "vel": 62,
            "steps": [
              1,
              0,
              0,
              0,
              0,
              0,
              0,
              0,
              0,
              1,
              0,
              0,
              0,
              0,
              0,
              0
            ]
          },
          "rim": {
            "pitch": 37,
            "vel": 52,
            "steps": [
              0,
              0,
              0,
              0,
              1,
              0,
              0,
              0,
              0,
              0,
              0,
              0,
              1,
              0,
              0,
              0
            ]
          },
          "snare_brush": {
            "pitch": 38,
            "vel": 44,
            "steps": [
              0,
              0,
              0,
              0,
              0,
              0,
              0,
              0,
              0,
              0,
              0,
              0,
              1,
              0,
              0,
              0
            ]
          },
          "hat": {
            "pitch": 42,
            "vel": 38,
            "steps": [
              1,
              0,
              0,
              0,
              1,
              0,
              0,
              0,
              1,
              0,
              0,
              0,
              1,
              0,
              0,
              0
            ]
          }
        }
      }
    },
    "dr_tick_MB": {
      "length_beats": 4,
      "drum_grid": {
        "resolution": 16,
        "lanes": {
          "kick": {
            "pitch": 36,
            "vel": 64,
            "steps": [
              1,
              0,
              0,
              0,
              0,
              0,
              0,
              0,
              1,
              0,
              0,
              0,
              0,
              0,
              0,
              0
            ]
          },
          "rim": {
            "pitch": 37,
            "vel": 52,
            "steps": [
              0,
              0,
              0,
              0,
              1,
              0,
              0,
              0,
              0,
              0,
              0,
              0,
              0,
              0,
              0,
              0
            ]
          },
          "snare_brush": {
            "pitch": 38,
            "vel": 44,
            "steps": [
              0,
              0,
              0,
              0,
              0,
              0,
              0,
              0,
              0,
              0,
              0,
              0,
              1,
              0,
              0,
              0
            ]
          },
          "hat": {
            "pitch": 42,
            "vel": 38,
            "steps": [
              1,
              0,
              0,
              0,
              1,
              0,
              0,
              0,
              1,
              0,
              0,
              0,
              1,
              0,
              0,
              0
            ]
          }
        }
      }
    },
    "bass_twostep_C": {
      "length_beats": 4,
      "notes": [
        {
          "instrument": "bass",
          "beat": 0,
          "dur": 2,
          "pitch": 36,
          "vel": 44
        },
        {
          "instrument": "bass",
          "beat": 2,
          "dur": 2,
          "pitch": 31,
          "vel": 44
        }
      ]
    },
    "bass_twostep_A": {
      "length_beats": 4,
      "notes": [
        {
          "instrument": "bass",
          "beat": 0,
          "dur": 2,
          "pitch": 33,
          "vel": 44
        },
        {
          "instrument": "bass",
          "beat": 2,
          "dur": 2,
          "pitch": 28,
          "vel": 44
        }
      ]
    },
    "bass_pedal_C": {
      "length_beats": 4,
      "notes": [
        {
          "instrument": "bass",
          "beat": 0,
          "dur": 4,
          "pitch": 36,
          "vel": 40
        }
      ]
    },
    "bass_pedal_G": {
      "length_beats": 4,
      "notes": [
        {
          "instrument": "bass",
          "beat": 0,
          "dur": 4,
          "pitch": 31,
          "vel": 40
        }
      ]
    },
    "bass_pedal_F": {
      "length_beats": 4,
      "notes": [
        {
          "instrument": "bass",
          "beat": 0,
          "dur": 4,
          "pitch": 29,
          "vel": 40
        }
      ]
    },
    "ep_stab_A": {
      "length_beats": 4,
      "notes": [
        {
          "instrument": "ep",
          "beat": 0,
          "dur": 0.5,
          "pitch": 64,
          "vel": 50
        },
        {
          "instrument": "ep",
          "beat": 0,
          "dur": 0.5,
          "pitch": 71,
          "vel": 50
        },
        {
          "instrument": "ep",
          "beat": 2,
          "dur": 0.5,
          "pitch": 62,
          "vel": 50
        },
        {
          "instrument": "ep",
          "beat": 2,
          "dur": 0.5,
          "pitch": 69,
          "vel": 50
        }
      ]
    },
    "ep_stab_B": {
      "length_beats": 4,
      "notes": [
        {
          "instrument": "ep",
          "beat": 0,
          "dur": 0.5,
          "pitch": 65,
          "vel": 50
        },
        {
          "instrument": "ep",
          "beat": 0,
          "dur": 0.5,
          "pitch": 72,
          "vel": 50
        },
        {
          "instrument": "ep",
          "beat": 2,
          "dur": 0.5,
          "pitch": 64,
          "vel": 50
        },
        {
          "instrument": "ep",
          "beat": 2,
          "dur": 0.5,
          "pitch": 71,
          "vel": 50
        }
      ]
    },
    "ep_stab_C_wrong": {
      "length_beats": 4,
      "notes": [
        {
          "instrument": "ep",
          "beat": 0,
          "dur": 0.5,
          "pitch": 65,
          "vel": 50
        },
        {
          "instrument": "ep",
          "beat": 0,
          "dur": 0.5,
          "pitch": 68,
          "vel": 50
        },
        {
          "instrument": "ep",
          "beat": 2,
          "dur": 0.5,
          "pitch": 63,
          "vel": 50
        },
        {
          "instrument": "ep",
          "beat": 2,
          "dur": 0.5,
          "pitch": 70,
          "vel": 50
        }
      ]
    },
    "ep_motif1_MA": {
      "length_beats": 4,
      "notes": [
        {
          "instrument": "ep",
          "beat": 0,
          "dur": 0.5,
          "pitch": 64,
          "vel": 48
        },
        {
          "instrument": "ep",
          "beat": 0,
          "dur": 0.5,
          "pitch": 71,
          "vel": 48
        },
        {
          "instrument": "ep",
          "beat": 0.5,
          "dur": 0.25,
          "pitch": 65,
          "vel": 38
        },
        {
          "instrument": "ep",
          "beat": 1,
          "dur": 0.25,
          "pitch": 67,
          "vel": 38
        },
        {
          "instrument": "ep",
          "beat": 1.5,
          "dur": 0.25,
          "pitch": 65,
          "vel": 38
        },
        {
          "instrument": "ep",
          "beat": 2,
          "dur": 0.5,
          "pitch": 69,
          "vel": 48
        },
        {
          "instrument": "bass",
          "beat": 0,
          "dur": 2,
          "pitch": 52,
          "vel": 18
        },
        {
          "instrument": "bass",
          "beat": 2,
          "dur": 2,
          "pitch": 53,
          "vel": 18
        }
      ]
    },
    "ep_motif2_MA": {
      "length_beats": 4,
      "notes": [
        {
          "instrument": "ep",
          "beat": 0,
          "dur": 0.5,
          "pitch": 69,
          "vel": 48
        },
        {
          "instrument": "ep",
          "beat": 0,
          "dur": 0.5,
          "pitch": 76,
          "vel": 48
        },
        {
          "instrument": "ep",
          "beat": 0.5,
          "dur": 0.25,
          "pitch": 52,
          "vel": 38
        },
        {
          "instrument": "ep",
          "beat": 1,
          "dur": 0.25,
          "pitch": 53,
          "vel": 38
        },
        {
          "instrument": "ep",
          "beat": 1.5,
          "dur": 0.25,
          "pitch": 52,
          "vel": 38
        },
        {
          "instrument": "ep",
          "beat": 2,
          "dur": 0.5,
          "pitch": 67,
          "vel": 48
        }
      ]
    },
    "pad_hold_A": {
      "length_beats": 4,
      "notes": [
        {
          "instrument": "pad",
          "beat": 0,
          "dur": 4,
          "pitch": 52,
          "vel": 26
        },
        {
          "instrument": "pad",
          "beat": 0,
          "dur": 4,
          "pitch": 59,
          "vel": 26
        }
      ]
    },
    "pad_hold_B": {
      "length_beats": 4,
      "notes": [
        {
          "instrument": "pad",
          "beat": 0,
          "dur": 4,
          "pitch": 50,
          "vel": 26
        },
        {
          "instrument": "pad",
          "beat": 0,
          "dur": 4,
          "pitch": 57,
          "vel": 26
        }
      ]
    },
    "pad_hold_dim": {
      "length_beats": 4,
      "notes": [
        {
          "instrument": "pad",
          "beat": 0,
          "dur": 4,
          "pitch": 47,
          "vel": 24
        },
        {
          "instrument": "pad",
          "beat": 0,
          "dur": 4,
          "pitch": 53,
          "vel": 24
        }
      ]
    },
    "pad_frag_MA": {
      "length_beats": 4,
      "notes": [
        {
          "instrument": "pad",
          "beat": 0,
          "dur": 0.25,
          "pitch": 74,
          "vel": 18
        },
        {
          "instrument": "pad",
          "beat": 1,
          "dur": 0.25,
          "pitch": 76,
          "vel": 18
        },
        {
          "instrument": "pad",
          "beat": 2,
          "dur": 0.25,
          "pitch": 77,
          "vel": 18
        }
      ]
    },
    "br_hit_A": {
      "length_beats": 4,
      "notes": [
        {
          "instrument": "brass",
          "beat": 0,
          "dur": 0.5,
          "pitch": 67,
          "vel": 62
        }
      ]
    },
    "br_hit_B": {
      "length_beats": 4,
      "notes": [
        {
          "instrument": "brass",
          "beat": 0,
          "dur": 0.5,
          "pitch": 70,
          "vel": 62
        }
      ]
    }
  },
  "arrangement": [
    {
      "pattern": "dr_tick_A",
      "start_bar": 0,
      "repeat": 1
    },
    {
      "pattern": "dr_tick_B",
      "start_bar": 1,
      "repeat": 1
    },
    {
      "pattern": "dr_tick_A",
      "start_bar": 2,
      "repeat": 1
    },
    {
      "pattern": "dr_tick_B",
      "start_bar": 3,
      "repeat": 1
    },
    {
      "pattern": "dr_tick_A",
      "start_bar": 4,
      "repeat": 1
    },
    {
      "pattern": "dr_tick_B",
      "start_bar": 5,
      "repeat": 1
    },
    {
      "pattern": "dr_tick_MB",
      "start_bar": 6,
      "repeat": 1
    },
    {
      "pattern": "dr_tick_A",
      "start_bar": 7,
      "repeat": 1
    },
    {
      "pattern": "dr_tick_B",
      "start_bar": 8,
      "repeat": 1
    },
    {
      "pattern": "dr_tick_A",
      "start_bar": 9,
      "repeat": 1
    },
    {
      "pattern": "dr_tick_B",
      "start_bar": 10,
      "repeat": 1
    },
    {
      "pattern": "dr_tick_A",
      "start_bar": 11,
      "repeat": 1
    },
    {
      "pattern": "dr_tick_B",
      "start_bar": 12,
      "repeat": 1
    },
    {
      "pattern": "dr_tick_A",
      "start_bar": 13,
      "repeat": 1
    },
    {
      "pattern": "dr_tick_B",
      "start_bar": 14,
      "repeat": 1
    },
    {
      "pattern": "dr_tick_A",
      "start_bar": 15,
      "repeat": 1
    },
    {
      "pattern": "bass_twostep_C",
      "start_bar": 0,
      "repeat": 1
    },
    {
      "pattern": "bass_twostep_A",
      "start_bar": 1,
      "repeat": 1
    },
    {
      "pattern": "bass_pedal_C",
      "start_bar": 2,
      "repeat": 1
    },
    {
      "pattern": "bass_pedal_G",
      "start_bar": 4,
      "repeat": 2
    },
    {
      "pattern": "bass_twostep_A",
      "start_bar": 6,
      "repeat": 1
    },
    {
      "pattern": "bass_twostep_C",
      "start_bar": 7,
      "repeat": 1
    },
    {
      "pattern": "bass_pedal_F",
      "start_bar": 8,
      "repeat": 2
    },
    {
      "pattern": "bass_twostep_A",
      "start_bar": 11,
      "repeat": 1
    },
    {
      "pattern": "bass_pedal_C",
      "start_bar": 12,
      "repeat": 1
    },
    {
      "pattern": "bass_twostep_C",
      "start_bar": 13,
      "repeat": 1
    },
    {
      "pattern": "bass_twostep_A",
      "start_bar": 14,
      "repeat": 1
    },
    {
      "pattern": "bass_twostep_C",
      "start_bar": 15,
      "repeat": 1
    },
    {
      "pattern": "ep_stab_A",
      "start_bar": 0,
      "repeat": 1
    },
    {
      "pattern": "ep_stab_B",
      "start_bar": 1,
      "repeat": 1
    },
    {
      "pattern": "ep_stab_A",
      "start_bar": 2,
      "repeat": 1
    },
    {
      "pattern": "ep_motif1_MA",
      "start_bar": 3,
      "repeat": 1
    },
    {
      "pattern": "ep_stab_B",
      "start_bar": 4,
      "repeat": 1
    },
    {
      "pattern": "ep_stab_A",
      "start_bar": 5,
      "repeat": 1
    },
    {
      "pattern": "ep_stab_C_wrong",
      "start_bar": 6,
      "repeat": 1
    },
    {
      "pattern": "ep_stab_A",
      "start_bar": 7,
      "repeat": 1
    },
    {
      "pattern": "ep_stab_B",
      "start_bar": 8,
      "repeat": 1
    },
    {
      "pattern": "ep_stab_A",
      "start_bar": 9,
      "repeat": 1
    },
    {
      "pattern": "ep_stab_B",
      "start_bar": 10,
      "repeat": 1
    },
    {
      "pattern": "ep_stab_A",
      "start_bar": 11,
      "repeat": 1
    },
    {
      "pattern": "ep_motif2_MA",
      "start_bar": 12,
      "repeat": 1
    },
    {
      "pattern": "ep_stab_B",
      "start_bar": 13,
      "repeat": 1
    },
    {
      "pattern": "ep_stab_A",
      "start_bar": 14,
      "repeat": 1
    },
    {
      "pattern": "ep_stab_A",
      "start_bar": 15,
      "repeat": 1
    },
    {
      "pattern": "pad_hold_A",
      "start_bar": 2,
      "repeat": 1
    },
    {
      "pattern": "pad_hold_B",
      "start_bar": 5,
      "repeat": 1
    },
    {
      "pattern": "pad_hold_A",
      "start_bar": 8,
      "repeat": 1
    },
    {
      "pattern": "pad_hold_dim",
      "start_bar": 10,
      "repeat": 1
    },
    {
      "pattern": "pad_frag_MA",
      "start_bar": 12,
      "repeat": 1
    },
    {
      "pattern": "pad_hold_A",
      "start_bar": 13,
      "repeat": 1
    },
    {
      "pattern": "br_hit_A",
      "start_bar": 6,
      "repeat": 1
    },
    {
      "pattern": "br_hit_B",
      "start_bar": 11,
      "repeat": 1
    }
  ]
}