{
  "format": "pattern-midi.v1",
  "global": {
    "ticks_per_quarter": 480,
    "time_signature": [
      4,
      4
    ],
    "tempo_bpm": 104,
    "bars": 16,
    "loop": true
  },
  "instruments": {
    "drums": {
      "channel": 10,
      "program": null
    },
    "ep": {
      "channel": 1,
      "program": 4
    },
    "bass": {
      "channel": 2,
      "program": 38
    },
    "vibes": {
      "channel": 3,
      "program": 11
    },
    "brass": {
      "channel": 4,
      "program": 59
    }
  },
  "patterns": {
    "dr_rimA": {
      "length_beats": 4,
      "drum_grid": {
        "resolution": 16,
        "swing": 0,
        "lanes": {
          "kick": {
            "pitch": 36,
            "vel": 70,
            "steps": [
              1,
              0,
              0,
              0,
              0,
              0,
              0,
              0,
              1,
              0,
              0,
              0,
              0,
              0,
              0,
              0
            ]
          },
          "rim": {
            "pitch": 37,
            "vel": 58,
            "steps": [
              0,
              0,
              0,
              0,
              1,
              0,
              1,
              0,
              1,
              0,
              0,
              0,
              1,
              0,
              1,
              0
            ]
          },
          "snare_brush": {
            "pitch": 38,
            "vel": 42,
            "steps": [
              0,
              0,
              0,
              0,
              0,
              0,
              0,
              0,
              1,
              0,
              0,
              0,
              0,
              0,
              0,
              0
            ]
          }
        }
      }
    },
    "dr_rimB": {
      "length_beats": 4,
      "drum_grid": {
        "resolution": 16,
        "swing": 0,
        "lanes": {
          "kick": {
            "pitch": 36,
            "vel": 70,
            "steps": [
              1,
              0,
              0,
              0,
              0,
              0,
              0,
              0,
              0,
              1,
              0,
              0,
              0,
              0,
              0,
              0
            ]
          },
          "rim": {
            "pitch": 37,
            "vel": 58,
            "steps": [
              0,
              0,
              0,
              0,
              1,
              0,
              0,
              1,
              1,
              0,
              0,
              0,
              1,
              0,
              0,
              1
            ]
          },
          "snare_brush": {
            "pitch": 38,
            "vel": 42,
            "steps": [
              0,
              0,
              0,
              0,
              0,
              0,
              0,
              0,
              1,
              0,
              0,
              0,
              0,
              0,
              0,
              0
            ]
          }
        }
      }
    },
    "bass_I": {
      "length_beats": 4,
      "notes": [
        {
          "instrument": "bass",
          "beat": 0,
          "dur": 2,
          "pitch": 36,
          "vel": 42
        },
        {
          "instrument": "bass",
          "beat": 2,
          "dur": 2,
          "pitch": 31,
          "vel": 38
        }
      ]
    },
    "bass_vi": {
      "length_beats": 4,
      "notes": [
        {
          "instrument": "bass",
          "beat": 0,
          "dur": 2,
          "pitch": 33,
          "vel": 40
        },
        {
          "instrument": "bass",
          "beat": 2,
          "dur": 2,
          "pitch": 28,
          "vel": 38
        }
      ]
    },
    "bass_bVI": {
      "length_beats": 4,
      "notes": [
        {
          "instrument": "bass",
          "beat": 0,
          "dur": 2,
          "pitch": 32,
          "vel": 40
        },
        {
          "instrument": "bass",
          "beat": 2,
          "dur": 2,
          "pitch": 27,
          "vel": 38
        }
      ]
    },
    "bass_iv": {
      "length_beats": 4,
      "notes": [
        {
          "instrument": "bass",
          "beat": 0,
          "dur": 2,
          "pitch": 29,
          "vel": 40
        },
        {
          "instrument": "bass",
          "beat": 2,
          "dur": 2,
          "pitch": 36,
          "vel": 38
        }
      ]
    },
    "bass_rest": {
      "length_beats": 4,
      "notes": []
    },
    "ep_stabA": {
      "length_beats": 4,
      "notes": [
        {
          "instrument": "ep",
          "beat": 0,
          "dur": 0.5,
          "pitch": 64,
          "vel": 50
        },
        {
          "instrument": "ep",
          "beat": 0.5,
          "dur": 0.25,
          "pitch": 67,
          "vel": 40
        },
        {
          "instrument": "ep",
          "beat": 2,
          "dur": 0.5,
          "pitch": 62,
          "vel": 50
        },
        {
          "instrument": "ep",
          "beat": 2.5,
          "dur": 0.25,
          "pitch": 65,
          "vel": 40
        }
      ]
    },
    "ep_stabB": {
      "length_beats": 4,
      "notes": [
        {
          "instrument": "ep",
          "beat": 0,
          "dur": 0.5,
          "pitch": 64,
          "vel": 50
        },
        {
          "instrument": "ep",
          "beat": 1.5,
          "dur": 0.25,
          "pitch": 65,
          "vel": 40
        },
        {
          "instrument": "ep",
          "beat": 2,
          "dur": 0.5,
          "pitch": 62,
          "vel": 50
        },
        {
          "instrument": "ep",
          "beat": 3.5,
          "dur": 0.25,
          "pitch": 64,
          "vel": 40
        }
      ]
    },
    "ep_stabC": {
      "length_beats": 4,
      "notes": [
        {
          "instrument": "ep",
          "beat": 0,
          "dur": 0.5,
          "pitch": 67,
          "vel": 48
        },
        {
          "instrument": "ep",
          "beat": 2,
          "dur": 0.5,
          "pitch": 64,
          "vel": 48
        },
        {
          "instrument": "ep",
          "beat": 3,
          "dur": 0.25,
          "pitch": 62,
          "vel": 40
        }
      ]
    },
    "ep_dyad_iv_leverH": {
      "length_beats": 4,
      "notes": [
        {
          "instrument": "ep",
          "beat": 0,
          "dur": 0.75,
          "pitch": 65,
          "vel": 46
        },
        {
          "instrument": "ep",
          "beat": 0,
          "dur": 0.75,
          "pitch": 68,
          "vel": 46
        },
        {
          "instrument": "ep",
          "beat": 2,
          "dur": 0.75,
          "pitch": 65,
          "vel": 46
        },
        {
          "instrument": "ep",
          "beat": 2,
          "dur": 0.75,
          "pitch": 68,
          "vel": 46
        },
        {
          "instrument": "ep",
          "beat": 3.5,
          "dur": 0.25,
          "pitch": 67,
          "vel": 40
        }
      ]
    },
    "ep_cell_MA": {
      "length_beats": 4,
      "notes": [
        {
          "instrument": "ep",
          "beat": 0,
          "dur": 0.25,
          "pitch": 50,
          "vel": 34
        },
        {
          "instrument": "ep",
          "beat": 0.5,
          "dur": 0.25,
          "pitch": 51,
          "vel": 34
        },
        {
          "instrument": "ep",
          "beat": 1,
          "dur": 0.25,
          "pitch": 53,
          "vel": 34
        },
        {
          "instrument": "ep",
          "beat": 1.5,
          "dur": 0.25,
          "pitch": 51,
          "vel": 34
        },
        {
          "instrument": "ep",
          "beat": 2,
          "dur": 0.25,
          "pitch": 50,
          "vel": 34
        }
      ]
    },
    "vibes_tickA": {
      "length_beats": 4,
      "notes": [
        {
          "instrument": "vibes",
          "beat": 1,
          "dur": 0.25,
          "pitch": 81,
          "vel": 44
        },
        {
          "instrument": "vibes",
          "beat": 3,
          "dur": 0.25,
          "pitch": 83,
          "vel": 42
        }
      ]
    },
    "vibes_tickB": {
      "length_beats": 4,
      "notes": [
        {
          "instrument": "vibes",
          "beat": 0.75,
          "dur": 0.25,
          "pitch": 79,
          "vel": 42
        },
        {
          "instrument": "vibes",
          "beat": 2.75,
          "dur": 0.25,
          "pitch": 81,
          "vel": 42
        }
      ]
    },
    "vibes_MA_frag": {
      "length_beats": 4,
      "notes": [
        {
          "instrument": "vibes",
          "beat": 0.75,
          "dur": 0.25,
          "pitch": 77,
          "vel": 34
        },
        {
          "instrument": "vibes",
          "beat": 1.25,
          "dur": 0.25,
          "pitch": 79,
          "vel": 34
        },
        {
          "instrument": "vibes",
          "beat": 1.75,
          "dur": 0.25,
          "pitch": 77,
          "vel": 34
        }
      ]
    },
    "vibes_echo2": {
      "length_beats": 4,
      "notes": [
        {
          "instrument": "vibes",
          "beat": 2.5,
          "dur": 0.25,
          "pitch": 65,
          "vel": 34
        },
        {
          "instrument": "vibes",
          "beat": 3,
          "dur": 0.25,
          "pitch": 67,
          "vel": 34
        }
      ]
    },
    "br_hit1": {
      "length_beats": 4,
      "notes": [
        {
          "instrument": "brass",
          "beat": 0,
          "dur": 0.5,
          "pitch": 58,
          "vel": 62
        }
      ]
    },
    "br_hit2": {
      "length_beats": 4,
      "notes": [
        {
          "instrument": "brass",
          "beat": 0,
          "dur": 0.5,
          "pitch": 62,
          "vel": 60
        }
      ]
    }
  },
  "arrangement": [
    {
      "pattern": "dr_rimA",
      "start_bar": 0,
      "repeat": 1
    },
    {
      "pattern": "dr_rimB",
      "start_bar": 1,
      "repeat": 1
    },
    {
      "pattern": "dr_rimA",
      "start_bar": 2,
      "repeat": 1
    },
    {
      "pattern": "dr_rimB",
      "start_bar": 3,
      "repeat": 1
    },
    {
      "pattern": "dr_rimA",
      "start_bar": 4,
      "repeat": 1
    },
    {
      "pattern": "dr_rimB",
      "start_bar": 5,
      "repeat": 1
    },
    {
      "pattern": "dr_rimA",
      "start_bar": 6,
      "repeat": 1
    },
    {
      "pattern": "dr_rimB",
      "start_bar": 7,
      "repeat": 1
    },
    {
      "pattern": "dr_rimA",
      "start_bar": 8,
      "repeat": 1
    },
    {
      "pattern": "dr_rimB",
      "start_bar": 9,
      "repeat": 1
    },
    {
      "pattern": "dr_rimA",
      "start_bar": 10,
      "repeat": 1
    },
    {
      "pattern": "dr_rimB",
      "start_bar": 11,
      "repeat": 1
    },
    {
      "pattern": "dr_rimA",
      "start_bar": 12,
      "repeat": 1
    },
    {
      "pattern": "dr_rimB",
      "start_bar": 13,
      "repeat": 1
    },
    {
      "pattern": "dr_rimA",
      "start_bar": 14,
      "repeat": 1
    },
    {
      "pattern": "dr_rimB",
      "start_bar": 15,
      "repeat": 1
    },
    {
      "pattern": "bass_I",
      "start_bar": 0,
      "repeat": 2
    },
    {
      "pattern": "bass_vi",
      "start_bar": 2,
      "repeat": 1
    },
    {
      "pattern": "bass_rest",
      "start_bar": 3,
      "repeat": 1
    },
    {
      "pattern": "bass_I",
      "start_bar": 4,
      "repeat": 2
    },
    {
      "pattern": "bass_bVI",
      "start_bar": 6,
      "repeat": 1
    },
    {
      "pattern": "bass_iv",
      "start_bar": 7,
      "repeat": 1
    },
    {
      "pattern": "bass_vi",
      "start_bar": 8,
      "repeat": 1
    },
    {
      "pattern": "bass_I",
      "start_bar": 9,
      "repeat": 1
    },
    {
      "pattern": "bass_bVI",
      "start_bar": 10,
      "repeat": 1
    },
    {
      "pattern": "bass_iv",
      "start_bar": 11,
      "repeat": 1
    },
    {
      "pattern": "bass_I",
      "start_bar": 12,
      "repeat": 2
    },
    {
      "pattern": "bass_vi",
      "start_bar": 14,
      "repeat": 2
    },
    {
      "pattern": "ep_stabA",
      "start_bar": 0,
      "repeat": 1
    },
    {
      "pattern": "ep_stabB",
      "start_bar": 1,
      "repeat": 1
    },
    {
      "pattern": "ep_stabA",
      "start_bar": 2,
      "repeat": 1
    },
    {
      "pattern": "ep_stabC",
      "start_bar": 3,
      "repeat": 1
    },
    {
      "pattern": "ep_stabB",
      "start_bar": 4,
      "repeat": 1
    },
    {
      "pattern": "ep_stabA",
      "start_bar": 5,
      "repeat": 1
    },
    {
      "pattern": "ep_stabB",
      "start_bar": 6,
      "repeat": 1
    },
    {
      "pattern": "ep_stabC",
      "start_bar": 7,
      "repeat": 1
    },
    {
      "pattern": "ep_dyad_iv_leverH",
      "start_bar": 8,
      "repeat": 1
    },
    {
      "pattern": "ep_stabA",
      "start_bar": 9,
      "repeat": 1
    },
    {
      "pattern": "ep_stabB",
      "start_bar": 10,
      "repeat": 1
    },
    {
      "pattern": "ep_stabC",
      "start_bar": 11,
      "repeat": 1
    },
    {
      "pattern": "ep_cell_MA",
      "start_bar": 12,
      "repeat": 1
    },
    {
      "pattern": "ep_stabA",
      "start_bar": 13,
      "repeat": 1
    },
    {
      "pattern": "ep_stabB",
      "start_bar": 14,
      "repeat": 1
    },
    {
      "pattern": "ep_stabC",
      "start_bar": 15,
      "repeat": 1
    },
    {
      "pattern": "vibes_tickA",
      "start_bar": 0,
      "repeat": 1
    },
    {
      "pattern": "vibes_tickB",
      "start_bar": 2,
      "repeat": 1
    },
    {
      "pattern": "vibes_tickA",
      "start_bar": 4,
      "repeat": 1
    },
    {
      "pattern": "vibes_MA_frag",
      "start_bar": 6,
      "repeat": 1
    },
    {
      "pattern": "vibes_tickB",
      "start_bar": 8,
      "repeat": 1
    },
    {
      "pattern": "vibes_tickA",
      "start_bar": 10,
      "repeat": 1
    },
    {
      "pattern": "vibes_echo2",
      "start_bar": 12,
      "repeat": 1
    },
    {
      "pattern": "vibes_tickB",
      "start_bar": 14,
      "repeat": 1
    },
    {
      "pattern": "br_hit1",
      "start_bar": 7,
      "repeat": 1
    },
    {
      "pattern": "br_hit2",
      "start_bar": 11,
      "repeat": 1
    }
  ]
}